<?xml version="1.0" encoding="utf-8"?>
<!-- Generator: Adobe Illustrator 16.0.0, SVG Export Plug-In . SVG Version: 6.00 Build 0)  -->
<!DOCTYPE svg PUBLIC "-//W3C//DTD SVG 1.1//EN" "http://www.w3.org/Graphics/SVG/1.1/DTD/svg11.dtd">
<svg version="1.1" id="Layer_1" xmlns="http://www.w3.org/2000/svg" xmlns:xlink="http://www.w3.org/1999/xlink" x="0px" y="0px"
	 width="1024px" height="1098.727px" viewBox="0 0 1024 1098.727" xml:space="preserve">
<rect fill="rgba(0, 0, 0, 0)" width="1024.002" height="1024"/>

<g>
	<path fill="#182c25" d="M481.552,923.432c-2.263,0.941-3.735,1.445-3.735,1.445S479.392,924.483,481.552,923.432z"/>
	<path fill="#182c25" d="M339.321,879.067c0.081,0.202,0.08-0.066,0.037-0.694C339.296,878.717,339.279,878.963,339.321,879.067z"/>
	<path fill="#182c25" d="M447.951,395.363C392.474,386.749,400.743,420,400.743,420
		C422.797,437.401,447.951,395.363,447.951,395.363z"/>
	<path fill="#182c25" d="M284.735,433.366c-8.782,55.451,24.495,47.282,24.495,47.282
		C326.697,458.647,284.735,433.366,284.735,433.366z"/>
	<path fill="#182c25" d="M416.077,433.783c4.308,13.956,16.368,8.787,24.465,4.997c8.097-3.79,16.367,1.551,16.367,1.551
		s-9.992-13.267-20.158-16.111C426.587,421.375,416.077,433.783,416.077,433.783z"/>
	<path fill="#182c25" d="M358.267,543.144c0,0,15.467-6.051,20.944-15.074c5.478-9.022-3.64-22.486-3.64-22.486
		c-14.6,0.389-12.872,13.396-11.402,22.216C365.638,536.616,358.267,543.144,358.267,543.144z"/>
	<path fill="#182c25" d="M450.995,385.887c0,0,15.467-6.05,20.944-15.073s-3.64-22.487-3.64-22.487
		c-14.6,0.389-12.872,13.396-11.403,22.216C458.366,379.36,450.995,385.887,450.995,385.887z"/>
	<path fill="#182c25" d="M284.764,535.548c8.098-3.79,16.367,1.551,16.367,1.551s-9.992-13.265-20.158-16.11
		c-10.165-2.845-20.675,9.564-20.675,9.564C264.606,544.509,276.667,539.34,284.764,535.548z"/>
	<path fill="#182c25" d="M350.09,460.316c6.547-5.686,18.607-19.296,3.446-31.701c0,0-14.989,2.283-18.607,14.322
		s10.166,30.301,10.166,30.301S343.543,466.001,350.09,460.316z"/>
	<path fill="#182c25" d="M477.098,245.931c0,0-8.588,1.309-10.662,8.207c-2.072,6.898,5.825,17.362,5.825,17.362
		s-0.889-4.146,2.863-7.404S485.786,253.039,477.098,245.931z"/>
	<path fill="#182c25" d="M336.109,504.147c-10.893,6.274-13.399,29.016-13.399,29.016s3.838-6.325,12.502-5.97
		c8.664,0.357,26.776-1.269,24.261-20.695C359.473,506.499,347.002,497.874,336.109,504.147z"/>
	<path fill="#182c25" d="M385.064,406.044c14.989-4.652,19.814-24.982,12.233-39.626s-22.226-16.196-22.226-16.196
		c7.581,10.337-2.413,23.776-5.168,36.181C367.147,398.808,385.064,406.044,385.064,406.044z"/>
	<path fill="#182c25" d="M439.579,303.628c14.989-4.652,19.813-24.982,12.233-39.626c-7.58-14.645-22.225-16.195-22.225-16.195
		c7.58,10.337-2.413,23.776-5.169,36.181C421.661,296.393,439.579,303.628,439.579,303.628z"/>
	<path fill="#182c25" d="M508.033,197.661c-0.064-12.542-9.446-18.663-9.446-18.663c1.556,9.626-9.865,15.269-16.026,22.715
		c-6.162,7.448,3.469,18.553,3.469,18.553C497.792,222.305,508.098,210.205,508.033,197.661z"/>
	<path fill="#182c25" d="M114.927,463.43c-5.71,15.47,3.014,27.334,3.014,27.334c2.528-12.568,19.191-14.243,30.213-20.566
		c11.022-6.324,4.292-24.438,4.292-24.438C138.907,437.822,120.636,447.96,114.927,463.43z"/>
	<path fill="#182c25" d="M390.254,147.731c6.965,4.943,16.121-4.269,16.121-4.269c1.028-10.499-10.307-18.79-21.356-17.913
		c-11.048,0.875-15.829,9.542-15.829,9.542C377.571,133.093,383.289,142.788,390.254,147.731z"/>
	<path fill="#182c25" d="M410.447,198.909c-4.154,11.254,2.193,19.885,2.193,19.885c1.839-9.143,13.96-10.361,21.979-14.962
		s3.123-17.779,3.123-17.779C427.891,180.279,414.6,187.654,410.447,198.909z"/>
	<path fill="#182c25" d="M323.914,272.703c-13.54-7.938-31.81,2.2-37.52,17.67c-5.709,15.47,3.015,27.335,3.015,27.335
		c2.528-12.568,19.191-14.243,30.213-20.567C330.644,290.817,323.914,272.703,323.914,272.703z"/>
	<path fill="#182c25" d="M358.016,377.272c17.229-32.046-24.982-48.241-24.982-48.241
		C328.727,380.201,358.016,377.272,358.016,377.272z"/>
	<path fill="#182c25" d="M318.388,370.381c16.712-19.469-10.682-39.455-10.682-39.455c5.168,7.753-1.034,19.125-2.412,27.739
		C303.917,367.279,318.388,370.381,318.388,370.381z"/>
	<path fill="#182c25" d="M459.291,296.296c-6.576,5.733,2.552,17.384,2.552,17.384c25.304-4.248,17.066-37.142,17.066-37.142
		C477.913,285.802,465.867,290.563,459.291,296.296z"/>
	<path fill="#182c25" d="M278.245,367.107c14.128-1.896,14.645-7.925,13.955-16.454c-0.688-8.528,3.446-13.353,3.446-13.353
		C265.84,346.948,278.245,367.107,278.245,367.107z"/>
	<path fill="#182c25" d="M397.479,227.105c-0.688-8.528,3.446-13.353,3.446-13.353c-29.806,9.648-17.401,29.807-17.401,29.807
		C397.651,241.664,398.168,235.634,397.479,227.105z"/>
	<path fill="#182c25" d="M496.93,165.574c2.51-8.18,8.134-11.136,8.134-11.136c-31.263-2.044-27.181,21.271-27.181,21.271
		C491.713,179.167,494.42,173.754,496.93,165.574z"/>
	<path fill="#182c25" d="M189.343,439.123c14.128-1.896,14.645-7.925,13.956-16.454c-0.688-8.528,3.446-13.353,3.446-13.353
		C176.938,418.965,189.343,439.123,189.343,439.123z"/>
	<path fill="#182c25" d="M230.943,479.783c-11.771-8.04-16.188-3.902-21.379,2.9c-5.191,6.801-11.491,7.623-11.491,7.623
		C226.685,503.066,230.943,479.783,230.943,479.783z"/>
	<path fill="#182c25" d="M182.81,551.874c-13.68-4.008-16.602,1.292-19.437,9.366c-2.834,8.072-8.573,10.802-8.573,10.802
		C185.956,575.333,182.81,551.874,182.81,551.874z"/>
	<path fill="#182c25" d="M258.259,356.081c37.388-15.851,7.925-60.819,7.925-60.819C220.01,334.027,258.259,356.081,258.259,356.081
		z"/>
	<path fill="#182c25" d="M458.146,169.667c20.879-19.177-9.025-41.856-9.025-41.856
		C427.827,164.116,458.146,169.667,458.146,169.667z"/>
	<path fill="#182c25" d="M302.353,239.922c23.443-33.158-25.278-55.882-25.278-55.882
		C258.223,241.307,302.353,239.922,302.353,239.922z"/>
	<path fill="#182c25" d="M227.247,322.139c19.296-6.547,17.229-22.743,10.509-34.286c-6.719-11.543-4.996-17.918-4.996-17.918
		C188.999,304.221,227.247,322.139,227.247,322.139z"/>
	<path fill="#182c25" d="M176.531,509.446c31.296,33.207,43.082,0.604,43.082,0.604c-6.794-15.283-19.877-12.382-28.81-6.027
		C181.871,510.379,176.531,509.446,176.531,509.446z"/>
	<path fill="#182c25" d="M204.549,565.566c6.645-4.857,11.834-13.495,2.624-21.965c0,0-25.943,0.658-9.887,30.852
		C197.286,574.453,197.904,570.425,204.549,565.566z"/>
	<path fill="#182c25" d="M213.979,602.699c0,0-22.922,12.168,4.92,32.021c0,0-1.245-3.881,2.535-11.193
		C225.213,616.214,226.003,606.17,213.979,602.699z"/>
	<path fill="#182c25" d="M166.385,703.34c0,0-23.565,12.51,5.058,32.918c0,0-1.279-3.988,2.606-11.509
		C177.934,717.232,178.745,706.905,166.385,703.34z"/>
	<path fill="#182c25" d="M191.849,744.09c0.607-4.796-0.983-10.495-8.314-9.982c0,0-10.185,11.337,9.175,16.665
		C192.709,750.772,191.241,748.885,191.849,744.09z"/>
	<path fill="#182c25" d="M252.796,472.019c29.816-12.641,6.321-48.502,6.321-48.502
		C222.292,454.431,252.796,472.019,252.796,472.019z"/>
	<path fill="#182c25" d="M154.644,484.124c46.428,12.496,43.388-22.584,43.388-22.584
		C170.598,444.329,154.644,484.124,154.644,484.124z"/>
	<path fill="#182c25" d="M407.567,365.272c46.427,12.496,43.387-22.583,43.387-22.583
		C423.521,325.478,407.567,365.272,407.567,365.272z"/>
	<path fill="#182c25" d="M387.947,303.497c-23.154-23.64-54.183,11.671-54.183,11.671
		C378.816,338.792,387.947,303.497,387.947,303.497z"/>
	<path fill="#182c25" d="M420.892,221.153c24.77,44.433,51.733,19.894,51.733,19.894
		C466.189,208.589,420.892,221.153,420.892,221.153z"/>
	<path fill="#182c25" d="M150.058,550.951c-28.4-16.536-47.101,25.175-47.101,25.175
		C151.751,586.971,150.058,550.951,150.058,550.951z"/>
	<path fill="#182c25" d="M223.05,453.388c15.389-5.222,13.739-18.137,8.381-27.343s-3.984-14.29-3.984-14.29
		C192.547,439.098,223.05,453.388,223.05,453.388z"/>
	<path fill="#182c25" d="M385.096,326.67c-6.929,8.09-12.182,8.466-12.182,8.466c37.306,23.955,40.76-9.552,40.76-9.552
		C403.678,312.772,392.025,318.58,385.096,326.67z"/>
	<path fill="#182c25" d="M197.269,306.806c16.023-32.563-12-50.494-12-50.494C166.894,289.552,197.269,306.806,197.269,306.806z"/>
	<path fill="#182c25" d="M155.502,430.977c-12.735-31.747-43.535-21.088-43.535-21.088
		C123.664,443.836,155.502,430.977,155.502,430.977z"/>
	<path fill="#182c25" d="M379.157,160.562c11.697,33.948,43.536,21.088,43.536,21.088
		C409.957,149.904,379.157,160.562,379.157,160.562z"/>
	<path fill="#182c25" d="M143.775,401.667c6.05-23.479-16.018-30.318-16.018-30.318
		C120.191,395.651,143.775,401.667,143.775,401.667z"/>
	<path fill="#182c25" d="M186.783,530.775c-12.735-31.747-43.534-21.089-43.534-21.089
		C154.946,543.634,186.783,530.775,186.783,530.775z"/>
	<path fill="#182c25" d="M233.096,576.74c-19.548,30.118,10.188,47.287,10.188,47.287
		C260.459,594.447,233.096,576.74,233.096,576.74z"/>
	<path fill="#182c25" d="M163.697,630.107c-33.342,7.64-27.607,39.722-27.607,39.722
		C171.444,663.561,163.697,630.107,163.697,630.107z"/>
	<path fill="#182c25" d="M169.533,652.363c-21.712,26.431,2.442,48.313,2.442,48.313
		C196.118,674.098,169.533,652.363,169.533,652.363z"/>
	<path fill="#182c25" d="M161.407,386.508c-18.374,33.24,12,50.493,12,50.493C189.43,404.439,161.407,386.508,161.407,386.508z"/>
	<path fill="#182c25" d="M416.717,236.425c-32.01,10.444-17.542,40.904-17.542,40.904
		C428.992,265.856,416.717,236.425,416.717,236.425z"/>
	<path fill="#182c25" d="M182.624,306.806c0,0-7.553-13.731-27.122-7.038C155.502,299.768,164.667,315.258,182.624,306.806z"/>
	<path fill="#182c25" d="M264.715,220.898c0,0,7.538-13.739-8.606-26.666C256.109,194.232,247.951,210.277,264.715,220.898z"/>
	<path fill="#182c25" d="M165.739,346.777c16.54,2.584,33.597-5.341,35.147-14.3c0,0-5.168-16.712-18.263-15.162
		c-13.094,1.551-22.866,15.536-42.532,10.783C140.092,328.098,149.2,344.192,165.739,346.777z"/>
	<path fill="#182c25" d="M222.397,258.219c16.54,2.584,33.597-5.341,35.147-14.3c0,0-5.169-16.712-18.263-15.162
		c-13.095,1.551-22.867,15.536-42.532,10.783C196.75,239.541,205.857,255.635,222.397,258.219z"/>
	<path fill="#182c25" d="M209.501,347.272c-15.506,0.193-37.904,19.834-37.904,19.834s44.107,20.158,59.269-6.203
		C230.865,360.904,225.007,347.079,209.501,347.272z"/>
	<path fill="#182c25" d="M494.994,134.742c9.042-8.725,11.35-32.75,11.35-32.75s-37.218,12.598-31.525,36.57
		C474.818,138.563,485.953,143.467,494.994,134.742z"/>
	<path fill="#182c25" d="M370.676,164.601c0,0-28.884,38.954-6.25,59.263c0,0,14.741-2.857,17.774-18.064
		C385.233,190.592,370.676,164.601,370.676,164.601z"/>
	<path fill="#182c25" d="M422.99,147.028c0,0,10.101-1.957,12.18-12.377s-7.896-28.229-7.896-28.229S407.482,133.112,422.99,147.028
		z"/>
	<path fill="#182c25" d="M227.147,378.995c-11.444,9.476-16.44,30.495-16.44,30.495s6.892-12.922,20.76-12.06
		c13.87,0.862,24.552-1.723,20.761-18.435C252.229,378.995,238.591,369.519,227.147,378.995z"/>
	<path fill="#182c25" d="M264.707,256.793c-11.444,9.477-16.441,30.496-16.441,30.496s6.892-12.922,20.762-12.06
		c13.869,0.861,24.55-1.723,20.761-18.436C289.789,256.793,276.151,247.317,264.707,256.793z"/>
	<path fill="#182c25" d="M262.566,411.041c0,0,28.428,6.073,32.046-13.31C294.612,397.731,280.657,385.197,262.566,411.041z"/>
	<path fill="#182c25" d="M318.434,220.373c0,0-9.798,27.368,8.931,33.531C327.365,253.904,341.644,241.739,318.434,220.373z"/>
	<path fill="#182c25" d="M473.365,99.123c0,0-24.616,15.463-13.698,31.883C459.667,131.006,478.411,130.264,473.365,99.123z"/>
	<path fill="#182c25" d="M366.37,281.703c0,0-13.956-12.534-32.046,13.309C334.323,295.012,362.751,301.085,366.37,281.703z"/>
	<path fill="#182c25" d="M309.73,413.367c-9.95,4.911-15.118-0.646-15.118-0.646s10.596,21.321,27.911,19.771
		c17.315-1.551,20.028-15.765,20.028-15.765C333.248,399.411,319.68,408.457,309.73,413.367z"/>
	<path fill="#182c25" d="M250.193,539.947c-13.581,14.21-0.777,24.31,6.975,32.248c7.751,7.937,4.07,14.573,4.07,14.573
		s16.989-16.679,10.149-32.662C264.549,538.124,250.193,539.947,250.193,539.947z"/>
	<path fill="#182c25" d="M118.581,534.486c16.485,5.518,24.667-6.419,24.667-6.419c-1.586-19.592-17.642-16.742-28.726-16.229
		c-11.083,0.511-13.592-6.65-13.592-6.65S102.095,528.968,118.581,534.486z"/>
	<path fill="#182c25" d="M344.031,176.04c19.195-4.234,14.188-19.753,12.175-30.665c-2.014-10.911,4.741-14.37,4.741-14.37
		s-23.401,4.385-26.627,21.468C331.094,169.557,344.031,176.04,344.031,176.04z"/>
	<path fill="#182c25" d="M307.042,192.776c16.485,5.518,24.667-6.417,24.667-6.417c-1.586-19.593-17.642-16.742-28.725-16.23
		s-13.593-6.65-13.593-6.65S290.557,187.259,307.042,192.776z"/>
	<path fill="#182c25" d="M145.769,572.359c0,0,1.164,23.779,17.65,29.296c16.485,5.518,24.667-6.417,24.667-6.417
		c-1.586-19.593-17.642-16.741-28.726-16.23C148.278,579.521,145.769,572.359,145.769,572.359z"/>
	<path fill="#182c25" d="M192.816,685.976c-16.674,10.408-6.767,23.36-1.221,32.971s0.337,15.129,0.337,15.129
		s20.588-11.959,17.916-29.137C207.176,687.761,192.816,685.976,192.816,685.976z"/>
	<path fill="#182c25" d="M160.333,608.76c0,0-10.216-10.785-25.617-2.713c-15.4,8.071-12.389,32.221-12.389,32.221
		s1.237-7.602,12.331-8.772C145.752,628.324,162.193,628.752,160.333,608.76z"/>
	<path fill="#182c25" d="M188.613,614.47c0,0-14.414,3.6-14.946,20.979c-0.533,17.38,21.983,26.619,21.983,26.619
		s-6.015-4.812-1.587-15.05C198.493,636.778,206.941,622.669,188.613,614.47z"/>
	<path fill="#182c25" d="M542.449,923.432c2.16,1.052,3.735,1.445,3.735,1.445S544.71,924.373,542.449,923.432z"/>
	<path fill="#182c25" d="M684.68,879.067c0.042-0.104,0.024-0.351-0.036-0.694C684.599,879.001,684.599,879.27,684.68,879.067z"/>
	<path fill="#182c25" d="M759.626,801.537c0,0,13.697,0,17.573-8.787c3.877-8.787,1.293-8.012,3.877-20.675
		s11.112-26.36,11.112-26.36s-7.236,7.753-12.922,20.934c-5.686,13.18-8.092,24.46-21.71,22.916
		c-15.191-1.723-40.262-12.793-63.004-6.332s-26.93,4.091-42.437-5.472c-15.506-9.563-33.338-20.675-58.406-35.923
		c-25.068-15.247-28.428-20.675-31.271-45.226c-2.843-24.552-18.953-93.468-11.717-116.21s13.784-43.071,26.878-54.442
		c13.093-11.372,44.45-20.332,62.369-26.879c17.917-6.546,64.436,6.031,87.007,8.099c22.57,2.067,35.146,13.266,44.968,23.432
		c9.82,10.164,25.672,38.42,27.565,46.345c1.896,7.927,7.236,16.368,16.023,20.158c8.786,3.792,22.228,10.854,29.635,17.402
		c7.408,6.547,14.815,14.301,14.815,14.301s-12.919-19.298-25.152-29.29s-22.743-6.72-25.327-23.088
		c-2.584-16.366-5.514-21.88-12.233-30.839c-6.719-8.96-11.716-19.124-11.716-19.124s22.916,9.881,43.245,15.708
		c20.33,5.827,43.935,5.31,59.614-1.409c0,0-35.838,6.548-67.193-10.681c-31.357-17.23-60.991-27.913-60.991-27.913
		s27.221-25.843,55.132-40.66c27.911-14.817,54.445-27.566,89.247-18.607c0,0-36.872-16.196-83.045,6.546
		c-46.173,22.743-72.017,45.141-89.59,43.073c-17.574-2.068-43.763-18.608-61.682-16.196c-17.917,2.412-34.802-2.067-34.802-2.067
		s25.154-62.024,50.998-73.74c25.844-11.716,57.545-7.926,76.841-17.918c19.298-9.993,46.175-70.639,74.774-70.984
		c0,0-18.607-5.858-43.763,24.465c-25.153,30.323-30.667,37.56-55.132,39.627c-24.466,2.067-53.065-11.372-79.943,18.263
		c-26.877,29.634-64.092,77.531-88.557,85.111c-24.464,7.581-27.565,4.825-30.667-19.296c-3.101-24.121-10.683-72.706,3.444-99.239
		c14.128-26.533,40.316-37.215,60.646-42.039c20.331-4.824,31.357-16.885,38.594-29.979c7.235-13.094,12.06-14.473,28.944-17.574
		s34.802-5.168,48.24-12.749c13.439-7.581,38.594-31.013,67.193-39.972c0,0-24.81,4.479-42.038,17.573
		c-17.229,13.095-25.498,17.229-43.417,20.331c-17.919,3.101-34.457,3.101-41.005,3.445c-6.547,0.345-11.027-3.79-2.412-9.993
		s14.473-6.892,17.919-26.533c3.444-19.641,10.681-29.979,16.883-46.174c6.202-16.195,9.994-22.397,9.994-22.397
		S687.177,180,679.596,195.505c-7.579,15.506-8.959,32.736-23.431,39.972c-14.473,7.236-13.782,11.026-16.195,22.053
		c-2.412,11.027-11.027,35.147-35.837,42.039c-24.811,6.892-34.457,14.473-46.174,19.296c-11.716,4.824-28.6,9.993-30.667,2.412
		s-5.857-37.56,0-50.309s17.229-25.154,26.187-45.14c8.961-19.986,4.826-18.952,16.197-32.046
		c11.371-13.094,28.944-14.127,37.903-34.113c8.958-19.986,8.958-43.417,8.958-43.417s-3.789,33.424-15.161,41.005
		c-11.371,7.581-32.391,21.709-38.248,18.607c-5.857-3.101-7.236-34.802-34.113-32.046c0,0,30.667,12.06,23.431,44.451
		c-7.234,32.382-19.237,50.299-40.444,57.539c-21.208-7.24-33.212-25.157-40.446-57.539c-7.236-32.391,23.432-44.451,23.432-44.451
		c-26.878-2.756-28.256,28.945-34.114,32.046c-5.858,3.102-26.877-11.026-38.249-18.607c-11.371-7.581-15.162-41.005-15.162-41.005
		s0,23.432,8.959,43.417c8.958,19.986,26.532,21.02,37.903,34.113c11.372,13.094,7.236,12.06,16.196,32.046
		s20.331,32.391,26.188,45.14c5.858,12.749,2.067,42.728,0,50.309s-18.952,2.412-30.667-2.412
		c-11.717-4.824-21.364-12.405-46.174-19.296s-33.424-31.012-35.837-42.039c-2.412-11.027-1.722-14.817-16.194-22.053
		c-14.473-7.236-15.852-24.465-23.432-39.972C336.824,180,320.973,154.5,320.973,154.5s3.791,6.203,9.993,22.397
		c6.202,16.195,13.438,26.533,16.884,46.174c3.445,19.641,9.303,20.33,17.918,26.533c8.614,6.203,4.135,10.337-2.413,9.993
		c-6.546-0.345-23.086-0.344-41.004-3.445c-17.919-3.102-26.189-7.236-43.417-20.331c-17.229-13.094-42.04-17.573-42.04-17.573
		c28.601,8.959,53.755,32.391,67.194,39.972c13.439,7.581,31.355,9.648,48.241,12.749c16.884,3.101,21.708,4.48,28.945,17.574
		s18.262,25.154,38.593,29.979c20.331,4.824,46.519,15.506,60.646,42.039c14.127,26.533,6.547,75.119,3.446,99.239
		c-3.102,24.121-6.203,26.877-30.668,19.296c-24.464-7.581-61.679-55.477-88.557-85.111c-26.877-29.634-55.478-16.195-79.943-18.263
		c-24.465-2.067-29.979-9.304-55.132-39.627c-25.154-30.323-43.762-24.465-43.762-24.465c28.6,0.345,55.477,60.991,74.774,70.984
		c19.297,9.992,50.998,6.202,76.841,17.918c25.843,11.716,50.999,73.74,50.999,73.74s-16.885,4.479-34.803,2.067
		s-44.106,14.128-61.68,16.196c-17.574,2.067-43.417-20.331-89.59-43.073c-46.174-22.742-83.045-6.546-83.045-6.546
		c34.803-8.959,61.336,3.79,89.247,18.607c27.911,14.817,55.133,40.66,55.133,40.66s-29.634,10.682-60.991,27.913
		c-31.358,17.229-67.193,10.681-67.193,10.681c15.678,6.719,39.282,7.236,59.613,1.409c20.33-5.827,43.245-15.708,43.245-15.708
		s-4.996,10.164-11.715,19.124c-6.719,8.959-9.649,14.473-12.233,30.839c-2.584,16.368-13.093,13.096-25.327,23.088
		c-12.232,9.992-25.154,29.29-25.154,29.29s7.409-7.754,14.817-14.301c7.409-6.548,20.847-13.61,29.634-17.402
		c8.787-3.79,14.128-12.231,16.023-20.158c1.896-7.925,17.746-36.181,27.567-46.345c9.82-10.166,22.397-21.365,44.968-23.432
		c22.57-2.068,69.088-14.645,87.006-8.099c17.918,6.548,49.275,15.507,62.37,26.879c13.093,11.371,19.641,31.7,26.877,54.442
		c7.236,22.742-8.874,91.658-11.716,116.21c-2.843,24.551-6.202,29.979-31.271,45.226c-25.068,15.248-42.9,26.36-58.407,35.923
		c-15.506,9.563-11.629,10.079-34.372,3.618c-22.743-6.461-49.74,9.695-63.437,10.212c-13.697,0.518-23.656-11.763-29.342-24.942
		c-5.686-13.181-12.922-20.934-12.922-20.934s8.529,13.697,11.113,26.36c2.584,12.663,0,11.888,3.877,20.675
		c3.876,8.787,17.573,8.787,17.573,8.787c-13.697,5.169-24.034-0.259-35.406-1.292c-11.371-1.034-28.996-15.557-28.996-15.557
		s16.42,23.483,33.648,26.928c3.934,0.787,38.249,4.91,53.497,2.325c15.248-2.584,23.259-14.989,37.473-17.314
		c14.214-2.326,27.136,11.112,46.001,6.978s59.957-11.371,59.957-11.371s-14.989,21.45-33.855,29.979s-29.979,6.978-44.451,4.394
		c-14.472-2.585-23-4.91-33.597-2.585c-10.596,2.326-22.484,9.563-44.192,7.753c-21.708-1.809-37.958-10.274-37.958-10.274
		c10.155,9.342,35.891,18.286,41.318,20.354c5.427,2.067,29.203-2.584,42.642-6.461c13.439-3.876,33.08,4.911,33.08,4.911
		s-8.27,4.393-12.405,13.18c-3.492,7.422-2.007,21.479-1.772,24.891c0.698-3.879,7.827-21.694,17.795-26.441
		c10.854-5.169,25.068-5.686,44.193-6.978c19.124-1.292,27.652-19.124,48.328-29.203c20.675-10.079,15.506-2.326,14.73,2.326
		c-0.775,4.651-17.832,15.506-26.36,22.742s-8.012,10.079-10.854,21.967s-16.281,10.338-23.518,17.057
		c-7.236,6.72-8.011,9.304-14.989,10.338c-6.978,1.033-37.173,3.878-37.173,3.878s30.454,2.065,38.724,4.908
		s10.337-4.393,19.899-11.112s23.001-9.045,29.72-20.158c6.719-11.112,3.876-19.124,21.192-21.191
		c17.315-2.067,29.979-17.315,29.979-17.315s-2.067,14.989-4.911,22.226c-2.843,7.236-16.798,18.607-27.652,25.844
		c-10.854,7.236-0.517,14.472-10.079,23.259s-43.7,11.723-43.7,11.723s48.352-1.127,55.588-5.262s7.753-11.112,9.045-19.899
		c1.292-8.787,19.383-12.146,19.383-12.146s6.978,19.124,4.91,32.821c-1.368,9.062-7.833,13.625-12.055,15.678
		c6.78-2.816,20.649-9.542,23.168-18.262c3.36-11.63,1.551-28.687-0.258-37.215c-1.776-8.373,7.21-17.236,7.539-17.558
		c0.328,0.321,9.313,9.185,7.538,17.558c-1.809,8.528-3.618,25.585-0.259,37.215c2.521,8.72,16.389,15.445,23.169,18.262
		c-4.222-2.053-10.689-6.616-12.056-15.678c-2.067-13.697,4.91-32.821,4.91-32.821s18.091,3.359,19.383,12.146
		s1.809,15.765,9.045,19.899s55.588,5.262,55.588,5.262s-34.138-2.936-43.7-11.723c-9.562-8.787,0.775-16.022-10.078-23.259
		c-10.854-7.236-24.811-18.607-27.653-25.844s-4.91-22.226-4.91-22.226s12.663,15.248,29.979,17.315s14.473,10.079,21.192,21.191
		c6.719,11.113,20.157,13.438,29.72,20.158s11.63,13.955,19.899,11.112s38.723-4.908,38.723-4.908s-30.194-2.845-37.172-3.878
		c-6.978-1.034-7.753-3.618-14.989-10.338c-7.236-6.719-20.675-5.169-23.518-17.057s-2.326-14.73-10.854-21.967
		s-25.585-18.091-26.36-22.742c-0.775-4.652-5.944-12.405,14.73-2.326s29.203,27.911,48.328,29.203
		c19.124,1.292,33.338,1.809,44.192,6.978c9.968,4.747,17.099,22.563,17.796,26.441c0.233-3.412,1.718-17.469-1.773-24.891
		c-4.135-8.787-12.404-13.18-12.404-13.18s19.641-8.787,33.079-4.911c13.439,3.877,37.215,8.528,42.643,6.461
		c5.427-2.067,31.161-11.012,41.319-20.354c0,0-16.251,8.466-37.96,10.274c-21.709,1.81-33.597-5.427-44.192-7.753
		c-10.596-2.325-19.124,0-33.597,2.585c-14.473,2.584-25.585,4.135-44.451-4.394c-18.865-8.528-33.855-29.979-33.855-29.979
		s41.092,7.236,59.958,11.371c18.865,4.135,35.242-7.401,49.53-5.599c19.124,2.412,18.696,13.352,33.944,15.936
		c15.247,2.585,49.634-1.235,53.496-2.325c15.245-4.307,33.649-26.928,33.649-26.928s-17.627,14.522-28.998,15.557
		C783.66,801.278,773.323,806.706,759.626,801.537z"/>
	<path fill="#182c25" d="M623.257,420c0,0,8.27-33.251-47.207-24.637C576.05,395.363,601.205,437.401,623.257,420z"/>
	<path fill="#182c25" d="M739.266,433.366c0,0-41.961,25.281-24.494,47.282C714.771,480.648,748.047,488.817,739.266,433.366z"/>
	<path fill="#182c25" d="M583.46,438.78c8.096,3.791,20.157,8.959,24.464-4.997c0,0-10.509-12.408-20.675-9.563
		s-20.158,16.111-20.158,16.111S575.361,434.99,583.46,438.78z"/>
	<path fill="#182c25" d="M648.43,505.583c0,0-9.118,13.464-3.641,22.486c5.479,9.023,20.946,15.074,20.946,15.074
		s-7.372-6.527-5.904-15.345C661.301,518.979,663.029,505.972,648.43,505.583z"/>
	<path fill="#182c25" d="M555.702,348.327c0,0-9.118,13.464-3.641,22.487s20.945,15.073,20.945,15.073s-7.371-6.526-5.903-15.344
		C568.573,361.723,570.302,348.715,555.702,348.327z"/>
	<path fill="#182c25" d="M763.702,530.553c0,0-10.509-12.409-20.675-9.564c-10.166,2.846-20.158,16.11-20.158,16.11
		s8.271-5.341,16.368-1.551C747.334,539.34,759.396,544.509,763.702,530.553z"/>
	<path fill="#182c25" d="M689.073,442.937c-3.618-12.039-18.607-14.322-18.607-14.322c-15.161,12.405-3.102,26.016,3.444,31.701
		c6.548,5.686,4.997,12.922,4.997,12.922S692.691,454.975,689.073,442.937z"/>
	<path fill="#182c25" d="M557.563,254.137c-2.071-6.898-10.66-8.207-10.66-8.207c-8.688,7.108-1.777,14.907,1.975,18.165
		c3.749,3.258,2.862,7.404,2.862,7.404S559.637,261.035,557.563,254.137z"/>
	<path fill="#182c25" d="M688.79,527.193c8.664-0.355,12.502,5.97,12.502,5.97s-2.508-22.741-13.4-29.016
		c-10.893-6.274-23.362,2.351-23.362,2.351C662.014,525.925,680.127,527.551,688.79,527.193z"/>
	<path fill="#182c25" d="M638.937,406.044c0,0,17.917-7.236,15.161-19.641s-12.751-25.844-5.169-36.181
		c0,0-14.645,1.551-22.226,16.196C619.124,381.063,623.947,401.393,638.937,406.044z"/>
	<path fill="#182c25" d="M572.189,264.002c-7.58,14.645-2.756,34.975,12.233,39.626c0,0,17.917-7.236,15.161-19.641
		c-2.757-12.405-12.751-25.843-5.169-36.181C594.415,247.807,579.771,249.357,572.189,264.002z"/>
	<path fill="#182c25" d="M537.971,220.266c0,0,9.631-11.104,3.471-18.553c-6.162-7.446-17.584-13.089-16.027-22.715
		c0,0-9.382,6.121-9.446,18.663C515.902,210.205,526.21,222.305,537.971,220.266z"/>
	<path fill="#182c25" d="M906.06,490.765c0,0,8.725-11.865,3.015-27.334c-5.71-15.47-23.979-25.608-37.52-17.67
		c0,0-6.729,18.114,4.293,24.438C886.869,476.522,903.532,478.197,906.06,490.765z"/>
	<path fill="#182c25" d="M633.747,147.731c6.964-4.944,12.684-14.639,21.063-12.639c0,0-4.778-8.667-15.829-9.542
		c-11.048-0.877-22.383,7.414-21.354,17.913C617.626,143.462,626.782,152.674,633.747,147.731z"/>
	<path fill="#182c25" d="M611.36,218.794c0,0,6.348-8.631,2.194-19.885c-4.154-11.255-17.446-18.63-27.295-12.855
		c0,0-4.896,13.178,3.121,17.779C597.4,208.433,609.523,209.651,611.36,218.794z"/>
	<path fill="#182c25" d="M734.592,317.708c0,0,8.725-11.865,3.015-27.335c-5.71-15.47-23.98-25.608-37.52-17.67
		c0,0-6.729,18.114,4.292,24.438C715.401,303.466,732.064,305.14,734.592,317.708z"/>
	<path fill="#182c25" d="M690.967,329.031c0,0-42.21,16.195-24.981,48.241C665.985,377.272,695.275,380.201,690.967,329.031z"/>
	<path fill="#182c25" d="M705.613,370.381c0,0,14.472-3.102,13.093-11.716c-1.377-8.615-7.579-19.986-2.41-27.739
		C716.296,330.926,688.901,350.912,705.613,370.381z"/>
	<path fill="#182c25" d="M562.156,313.68c0,0,9.129-11.65,2.555-17.384c-6.576-5.733-18.624-10.494-19.619-19.758
		C545.092,276.538,536.854,309.432,562.156,313.68z"/>
	<path fill="#182c25" d="M745.755,367.107c0,0,12.407-20.159-17.399-29.807c0,0,4.135,4.825,3.444,13.353
		C731.111,359.182,731.628,365.211,745.755,367.107z"/>
	<path fill="#182c25" d="M640.477,243.559c0,0,12.407-20.159-17.399-29.807c0,0,4.135,4.825,3.444,13.353
		C625.833,235.634,626.35,241.664,640.477,243.559z"/>
	<path fill="#182c25" d="M527.07,165.574c2.512,8.18,5.217,13.592,19.047,10.135c0,0,4.081-23.315-27.18-21.271
		C518.938,154.438,524.561,157.395,527.07,165.574z"/>
	<path fill="#182c25" d="M834.657,439.123c0,0,12.407-20.158-17.4-29.806c0,0,4.135,4.824,3.444,13.353
		C820.013,431.198,820.53,437.228,834.657,439.123z"/>
	<path fill="#182c25" d="M814.437,482.683c-5.191-6.802-9.606-10.939-21.38-2.9c0,0,4.261,23.284,32.872,10.523
		C825.929,490.306,819.627,489.484,814.437,482.683z"/>
	<path fill="#182c25" d="M860.628,561.24c-2.835-8.074-5.757-13.374-19.438-9.366c0,0-3.146,23.459,28.01,20.168
		C869.2,572.042,863.463,569.313,860.628,561.24z"/>
	<path fill="#182c25" d="M765.741,356.081c0,0,38.249-22.053-7.925-60.819C757.816,295.262,728.355,340.23,765.741,356.081z"/>
	<path fill="#182c25" d="M565.855,169.667c0,0,30.32-5.551,9.025-41.856C574.881,127.811,544.977,150.49,565.855,169.667z"/>
	<path fill="#182c25" d="M721.648,239.922c0,0,44.129,1.385,25.277-55.882C746.926,184.04,698.205,206.764,721.648,239.922z"/>
	<path fill="#182c25" d="M796.754,322.139c0,0,38.248-17.918-5.514-52.204c0,0,1.724,6.375-4.995,17.918
		C779.525,299.396,777.458,315.592,796.754,322.139z"/>
	<path fill="#182c25" d="M847.47,509.446c0,0-5.34,0.933-14.272-5.423c-8.933-6.355-22.016-9.256-28.81,6.027
		C804.388,510.05,816.173,542.653,847.47,509.446z"/>
	<path fill="#182c25" d="M816.829,543.602c-9.213,8.47-4.022,17.107,2.623,21.965c6.646,4.858,7.264,8.887,7.264,8.887
		C842.771,544.26,816.829,543.602,816.829,543.602z"/>
	<path fill="#182c25" d="M810.021,602.699c-12.023,3.471-11.233,13.515-7.454,20.828c3.779,7.313,2.534,11.193,2.534,11.193
		C832.943,614.867,810.021,602.699,810.021,602.699z"/>
	<path fill="#182c25" d="M857.617,703.34c-12.36,3.565-11.549,13.893-7.664,21.409c3.885,7.521,2.604,11.509,2.604,11.509
		C881.182,715.85,857.617,703.34,857.617,703.34z"/>
	<path fill="#182c25" d="M831.185,747.476c-0.113,6.059-2.277,8.135-2.277,8.135c24.978-3.104,14.397-19.008,14.397-19.008
		C834.306,734.639,831.3,741.418,831.185,747.476z"/>
	<path fill="#182c25" d="M771.205,472.019c0,0,30.504-17.588-6.319-48.502C764.886,423.516,741.388,459.378,771.205,472.019z"/>
	<path fill="#182c25" d="M869.356,484.124c0,0-15.955-39.795-43.388-22.584C825.969,461.54,822.929,496.62,869.356,484.124z"/>
	<path fill="#182c25" d="M573.047,342.689c0,0-3.04,35.08,43.388,22.583C616.435,365.272,600.479,325.478,573.047,342.689z"/>
	<path fill="#182c25" d="M690.238,315.167c0,0-31.031-35.311-54.186-11.671C636.053,303.497,645.186,338.792,690.238,315.167z"/>
	<path fill="#182c25" d="M551.375,241.047c0,0,26.964,24.539,51.733-19.894C603.108,221.153,557.812,208.589,551.375,241.047z"/>
	<path fill="#182c25" d="M873.943,550.951c0,0-1.694,36.02,47.1,25.175C921.043,576.126,902.345,534.415,873.943,550.951z"/>
	<path fill="#182c25" d="M800.951,453.388c0,0,30.504-14.291-4.397-41.633c0,0,1.375,5.084-3.983,14.29
		S785.563,448.167,800.951,453.388z"/>
	<path fill="#182c25" d="M651.087,335.136c0,0-5.254-0.376-12.183-8.466c-6.928-8.09-18.581-13.898-28.577-1.085
		C610.327,325.584,613.781,359.091,651.087,335.136z"/>
	<path fill="#182c25" d="M826.732,306.806c0,0,30.374-17.254,12.001-50.494C838.733,256.312,810.709,274.243,826.732,306.806z"/>
	<path fill="#182c25" d="M868.5,430.977c0,0,31.836,12.859,43.534-21.088C912.034,409.889,881.234,399.23,868.5,430.977z"/>
	<path fill="#182c25" d="M644.844,160.562c0,0-30.8-10.658-43.534,21.088C601.31,181.65,633.146,194.51,644.844,160.562z"/>
	<path fill="#182c25" d="M880.225,401.667c0,0,23.584-6.016,16.019-30.318C896.243,371.349,874.176,378.188,880.225,401.667z"/>
	<path fill="#182c25" d="M880.754,509.687c0,0-30.801-10.658-43.537,21.089C837.217,530.775,869.056,543.634,880.754,509.687z"/>
	<path fill="#182c25" d="M790.904,576.74c0,0-27.361,17.707-10.188,47.287C780.717,624.027,810.453,606.858,790.904,576.74z"/>
	<path fill="#182c25" d="M860.305,630.107c0,0-7.749,33.453,27.606,39.722C887.911,669.829,893.645,637.747,860.305,630.107z"/>
	<path fill="#182c25" d="M854.468,652.363c0,0-26.585,21.734-2.443,48.313C852.024,700.676,876.181,678.794,854.468,652.363z"/>
	<path fill="#182c25" d="M862.595,386.508c0,0-28.024,17.931-12.001,50.493C850.594,437.001,880.97,419.748,862.595,386.508z"/>
	<path fill="#182c25" d="M624.827,277.329c0,0,14.467-30.46-17.543-40.904C607.284,236.425,595.011,265.856,624.827,277.329z"/>
	<path fill="#182c25" d="M841.376,306.806c17.958,8.452,27.124-7.038,27.124-7.038C848.93,293.075,841.376,306.806,841.376,306.806z
		"/>
	<path fill="#182c25" d="M767.892,194.232c-16.144,12.927-8.606,26.666-8.606,26.666
		C776.049,210.277,767.892,194.232,767.892,194.232z"/>
	<path fill="#182c25" d="M823.114,332.477c1.551,8.959,18.607,16.885,35.147,14.3s25.647-18.679,25.647-18.679
		c-19.665,4.753-29.438-9.232-42.533-10.783C828.283,315.765,823.114,332.477,823.114,332.477z"/>
	<path fill="#182c25" d="M766.456,243.919c1.551,8.959,18.607,16.885,35.147,14.3s25.647-18.679,25.647-18.679
		c-19.665,4.753-29.438-9.232-42.532-10.783C771.625,227.207,766.456,243.919,766.456,243.919z"/>
	<path fill="#182c25" d="M814.501,347.272c-15.506-0.193-21.365,13.632-21.365,13.632c15.161,26.36,59.269,6.203,59.269,6.203
		S830.007,347.466,814.501,347.272z"/>
	<path fill="#182c25" d="M549.183,138.563c5.691-23.972-31.525-36.57-31.525-36.57s2.308,24.025,11.349,32.75
		C538.05,143.467,549.183,138.563,549.183,138.563z"/>
	<path fill="#182c25" d="M659.577,223.864c22.633-20.31-6.253-59.263-6.253-59.263s-14.558,25.991-11.522,41.199
		C644.836,221.007,659.577,223.864,659.577,223.864z"/>
	<path fill="#182c25" d="M601.011,147.028c15.509-13.916-4.284-40.606-4.284-40.606s-9.974,17.809-7.896,28.229
		C590.91,145.071,601.011,147.028,601.011,147.028z"/>
	<path fill="#182c25" d="M796.853,378.995c-11.443-9.477-25.08,0-25.08,0c-3.79,16.712,6.891,19.297,20.76,18.435
		c13.87-0.862,20.762,12.06,20.762,12.06S808.297,388.471,796.853,378.995z"/>
	<path fill="#182c25" d="M754.974,275.229c13.869-0.862,20.76,12.06,20.76,12.06s-4.995-21.019-16.438-30.496
		c-11.444-9.476-25.083,0-25.083,0C730.423,273.505,741.104,276.09,754.974,275.229z"/>
	<path fill="#182c25" d="M761.435,411.041c-18.09-25.844-32.046-13.31-32.046-13.31
		C733.007,417.114,761.435,411.041,761.435,411.041z"/>
	<path fill="#182c25" d="M696.636,253.904c18.731-6.163,8.931-33.531,8.931-33.531C682.357,241.739,696.636,253.904,696.636,253.904
		z"/>
	<path fill="#182c25" d="M564.333,131.006c10.919-16.419-13.697-31.883-13.697-31.883
		C545.591,130.264,564.333,131.006,564.333,131.006z"/>
	<path fill="#182c25" d="M689.679,295.012c-18.091-25.843-32.046-13.309-32.046-13.309
		C661.251,301.085,689.679,295.012,689.679,295.012z"/>
	<path fill="#182c25" d="M729.389,412.721c0,0-5.169,5.557-15.118,0.646c-9.95-4.91-23.518-13.956-32.821,3.36
		c0,0,2.714,14.214,20.028,15.765C718.793,434.042,729.389,412.721,729.389,412.721z"/>
	<path fill="#182c25" d="M773.808,539.947c0,0-14.355-1.823-21.194,14.159c-6.838,15.983,10.15,32.662,10.15,32.662
		s-3.683-6.637,4.07-14.573C774.585,564.257,787.388,554.157,773.808,539.947z"/>
	<path fill="#182c25" d="M909.479,511.838c-11.085-0.513-27.14-3.363-28.725,16.229c0,0,8.181,11.937,24.666,6.419
		c16.485-5.519,17.65-29.298,17.65-29.298S920.561,512.349,909.479,511.838z"/>
	<path fill="#182c25" d="M667.797,145.375c-2.016,10.912-7.021,26.431,12.174,30.665c0,0,12.937-6.483,9.71-23.566
		c-3.225-17.083-26.625-21.468-26.625-21.468S669.81,134.465,667.797,145.375z"/>
	<path fill="#182c25" d="M692.291,186.358c0,0,8.182,11.936,24.667,6.417c16.487-5.517,17.65-29.297,17.65-29.297
		s-2.508,7.162-13.593,6.65C709.934,169.617,693.876,166.766,692.291,186.358z"/>
	<path fill="#182c25" d="M835.915,595.238c0,0,8.181,11.935,24.666,6.417c16.485-5.517,17.65-29.296,17.65-29.296
		s-2.51,7.161-13.592,6.648C853.555,578.497,837.5,575.646,835.915,595.238z"/>
	<path fill="#182c25" d="M831.185,685.976c0,0-14.359,1.785-17.03,18.963c-2.674,17.178,17.914,29.137,17.914,29.137
		s-5.209-5.519,0.338-15.129C837.952,709.336,847.859,696.384,831.185,685.976z"/>
	<path fill="#182c25" d="M889.284,606.047c-15.399-8.072-25.616,2.713-25.616,2.713c-1.859,19.992,14.58,19.564,25.677,20.735
		c11.093,1.171,12.328,8.772,12.328,8.772S904.686,614.118,889.284,606.047z"/>
	<path fill="#182c25" d="M850.335,635.449c-0.533-17.38-14.947-20.979-14.947-20.979c-18.328,8.199-9.879,22.309-5.451,32.549
		c4.428,10.238-1.587,15.05-1.587,15.05S850.866,652.829,850.335,635.449z"/>
</g>
</svg>
