<?xml version="1.0" encoding="iso-8859-1"?>
<!-- Generator: Adobe Illustrator 19.0.0, SVG Export Plug-In . SVG Version: 6.00 Build 0)  -->
<svg version="1.1" id="Layer_1" xmlns="http://www.w3.org/2000/svg" xmlns:xlink="http://www.w3.org/1999/xlink" x="0px" y="0px"
	 viewBox="0 0 432 432" style="enable-background:new 0 0 432 432;" xml:space="preserve">
<g transform="translate(0 -1020.36)" shape-rendering="auto" image-rendering="auto" color-rendering="auto" color-interpolation="sRGB">
	<path style="fill:#464C63;" d="M307.501,1040.479c-7.672,0.367-15.272,1.424-22.717,3.184
		c-26.656,6.314-51.12,21.582-68.526,44.531c-16.384-21.049-39.533-36.846-66.464-43.844c-47.183-12.261-97.195,4.67-126.835,43.094
		c-29.969,38.846-31.725,96.984,1.406,134.057c61.338,68.641,181.751,203.508,183.955,205.975c1.72,4.066,6.414,5.971,10.484,4.252
		c0.742-0.314,1.432-0.736,2.047-1.256c0.097-0.078,0.191-0.158,0.284-0.24c0.575-0.479,1.08-1.037,1.5-1.656l185.08-207.066
		c44.508-49.807,24.414-130.188-32.466-164.035c-21.169-12.598-44.729-18.031-67.745-16.986L307.501,1040.479z"/>
	<path style="fill:#D87070;" d="M308.126,1056.467c19.978-0.896,40.41,3.836,58.839,14.801
		c48.714,28.986,65.84,98.072,28.717,139.615l-173.956,194.73l-5.562-43.873l39.091-69.635c1.741-2.988,1.363-6.756-0.937-9.338
		l-60.464-67.264l44.997-66.795c1.053-1.648,1.464-3.627,1.156-5.559c-2.073-14.689-7.153-28.322-14.218-40.752
		c19.198-28.271,50.104-44.484,82.338-45.934L308.126,1056.467z"/>
	<path style="fill:#E4635D;" d="M114.859,1056.496c10.244-0.416,20.646,0.672,30.904,3.342
		c40.306,10.473,70.661,43.189,77.369,83.438l-46.059,68.449c-2.029,3.033-1.746,7.055,0.688,9.773l60.714,67.764l-37.56,66.92
		c-0.815,1.475-1.143,3.168-0.937,4.84l4.843,38.598c-19.273-21.568-112.322-125.852-168.519-188.738
		c-27.298-30.547-26.105-80.729-0.718-113.635C54.871,1072.244,84.126,1057.705,114.859,1056.496L114.859,1056.496z"/>
	<g>
		<path style="fill:#BD5858;" d="M308.134,1056.479c-0.545,0-1.08,0.16-1.625,0.16c17.849,0.305,35.838,4.883,52.246,14.646
			c48.714,28.986,65.84,98.072,28.717,139.615l-166.769,186.676l1.031,8.057l173.956-194.732
			c37.124-41.545,19.997-110.629-28.717-139.615c-18.429-10.965-38.862-15.703-58.839-14.801L308.134,1056.479z"/>
		<path style="fill:#BD5858;" d="M114.867,1056.508c-0.682,0-1.35,0.16-2.031,0.191c8.345,0.16,16.744,0.992,25.061,3.154
			c40.306,10.473,70.661,43.189,77.369,83.438l-46.059,68.449c-2.029,3.033-1.746,7.055,0.688,9.773l60.714,67.764l-37.56,66.918
			c-0.815,1.475-1.143,3.168-0.937,4.84l3.562,28.322c1.467,1.643,8.107,9.102,9.156,10.273l-4.843-38.598
			c-0.205-1.672,0.123-3.365,0.937-4.84l37.56-66.918l-60.714-67.764c-2.434-2.719-2.717-6.74-0.688-9.773l46.059-68.449
			c-6.708-40.25-37.063-72.967-77.369-83.438c-10.258-2.666-20.66-3.766-30.904-3.342L114.867,1056.508z"/>
	</g>
</g>
<g>
</g>
<g>
</g>
<g>
</g>
<g>
</g>
<g>
</g>
<g>
</g>
<g>
</g>
<g>
</g>
<g>
</g>
<g>
</g>
<g>
</g>
<g>
</g>
<g>
</g>
<g>
</g>
<g>
</g>
</svg>
